# xmcd
#
# Track frame offsets:
#	150
#	20020
#	37320
#	62930
#	88620
#	116902
#	137567
#	176672
#	194917
#	209457
#
# Disc length: 3186 seconds
#
# Revision: 0
# Processed by: cddbd v1.5.2PL0 Copyright (c) Steve Scherf et al.
# Submitted via: audiograbber 1.83.01
#
DISCID=a10c700a
DTITLE=Buddy Guy and Junior Wells - Last Time Around - Live At Legends
DYEAR=1998
DGENRE=Blues
TTITLE0=Seeds Of Reed [live]
TTITLE1=That's All Right [live]
TTITLE2=She's All Right/Still A Fool [live]
TTITLE3=Hoochie Coochie Man [live]
TTITLE4=What I'd Say (It's All Right) [live]
TTITLE5=Key To The Highway [live]
TTITLE6=I've Been There [live]
TTITLE7=Feelin' Good/What I'd Say [live]
TTITLE8=Oh Baby/You Better Watch Yourself [live]
TTITLE9=Hoodoo Man Blues [live]
EXTD=
EXTT0=
EXTT1=
EXTT2=
EXTT3=
EXTT4=
EXTT5=
EXTT6=
EXTT7=
EXTT8=
EXTT9=
PLAYORDER=
